<?xml version="1.0" encoding="UTF-8"?>
<svg id="Layer_1" xmlns="http://www.w3.org/2000/svg" version="1.1" viewBox="0 0 401.6 100">
  <!-- Generator: Adobe Illustrator 29.1.0, SVG Export Plug-In . SVG Version: 2.1.0 Build 142)  -->
  <defs>
    <style>
      .st0 {
        fill: #b6ff17;
      }
    </style>
  </defs>
  <g>
    <path d="M114.4,28.2c.3-.4.8-.5,1.3-.5h12.5c2.2,0,4.1.4,5.9,1.2,1.7.8,3,2,4,3.6.9,1.5,1.4,3.3,1.4,5.4s-.4,3.8-1.1,5.2c-.8,1.4-2,2.5-3.6,3.1,1.3.3,2.5.9,3.6,1.9,1.1,1,1.9,2.2,2.4,3.6.6,1.4.8,2.8.8,4.2,0,2.1-.5,4-1.4,5.7-.9,1.7-2.3,3.1-4,4.1-1.8,1.1-3.9,1.6-6.2,1.6h-14.6c-.5,0-1-.2-1.3-.6-.4-.4-.6-.8-.6-1.3l.3-35.8c0-.5.2-1,.5-1.3h0ZM131.6,43.3c.8-.5,1.4-1.3,1.9-2.2.4-.9.6-1.9.6-3.1s-.3-2-.8-2.9c-.6-.8-1.3-1.5-2.3-1.9-1-.4-2.1-.6-3.2-.6h-8.4v11.5h9.5c1.1,0,2-.3,2.8-.8h0ZM133.1,61.4c1-.6,1.7-1.4,2.2-2.4.5-1,.8-2,.8-3.2s-.3-2.3-.8-3.4c-.6-1-1.3-1.9-2.3-2.6-1-.7-2.1-1-3.3-1h-10.4v13.4h10.6c1.2,0,2.3-.3,3.3-.9h0Z"/>
    <path d="M148.5,53.8c0-2.8.6-5.2,1.8-7.3,1.2-2.1,2.8-3.8,4.9-4.9,2.1-1.1,4.4-1.7,7-1.7s4.9.6,7.1,1.7c2.1,1.2,3.8,2.8,5.1,4.9.6,1,1.1,2.1,1.3,3.2.2,1.2.4,2.5.4,4.1,0,2.8-.6,5.2-1.8,7.4-1.2,2.2-2.9,3.8-5,5-2.1,1.1-4.4,1.7-7,1.7s-4.9-.6-7-1.7c-2.1-1.1-3.8-2.8-5-4.9-.6-1-1-2.1-1.3-3.3-.3-1.2-.4-2.6-.4-4.1ZM157.8,61.9c1.4.8,2.9,1.2,4.5,1.2s3.1-.4,4.5-1.2c1.4-.8,2.4-1.8,3.2-3.2.8-1.4,1.1-2.9,1.1-4.7s-.4-3.2-1.1-4.6c-.8-1.3-1.8-2.4-3.2-3.1-1.4-.7-2.8-1.1-4.5-1.1s-3.1.4-4.5,1.1c-1.4.8-2.4,1.8-3.2,3.1-.8,1.3-1.2,2.9-1.2,4.6s.4,3.3,1.2,4.7c.8,1.4,1.8,2.4,3.2,3.2Z"/>
    <path d="M189.1,66.7c-.4.4-.8.5-1.3.5h-1.5c-.5,0-1-.2-1.3-.5-.4-.3-.5-.8-.5-1.3V27.9c0-.6.2-1,.6-1.4.4-.4.9-.5,1.4-.5h1.5c.5.1.9.3,1.2.6s.5.8.5,1.3v37.5c0,.5-.2,1-.5,1.3h0Z"/>
    <path d="M198.5,44.6c-.5,0-1-.2-1.3-.5-.4-.4-.5-.8-.5-1.3v-.4c0-.5.2-1,.5-1.3.4-.3.8-.5,1.3-.5h2.7v-8.3c0-.5.2-1,.5-1.3.4-.4.8-.5,1.3-.5h1.5c.5,0,1,.2,1.3.5.4.4.5.8.5,1.3v8.3h4.1c.5,0,1,.2,1.3.5.4.3.5.8.5,1.3v.4c0,.5-.2,1-.5,1.3-.4.3-.8.5-1.3.5h-4.1v20.8c0,.5-.2,1-.5,1.3s-.8.5-1.3.5h-1.5c-.5,0-1-.2-1.3-.5s-.5-.8-.5-1.3v-20.8s-2.7,0-2.7,0Z"/>
    <path d="M220,41c.4-.3.8-.5,1.3-.5h1.4c.5,0,.9.2,1.2.5.4.3.5.7.6,1.2l.2,2.3c.6-1.2,1.6-2.3,3-3.1,1.4-.8,2.9-1.3,4.4-1.4,0,0,.3,0,.8,0,.9,0,1.6,0,2.2.2,3.4.5,5.7,2.2,7,5.2,1.9-3.7,5-5.5,9.3-5.5s4.1.5,5.7,1.4c1.5.9,2.7,2.3,3.5,4.1.8,1.7,1.2,3.9,1.1,6.4l-.2,13.7c0,.5-.2,1-.5,1.3s-.8.5-1.3.5h-1.5c-.5,0-1-.2-1.4-.5-.4-.3-.5-.8-.5-1.4l.2-13.2c0-1.4-.2-2.7-.7-3.8-.5-1-1.2-1.8-2.1-2.5-.9-.6-2.1-.9-3.3-.9h0c-1.4,0-2.6.3-3.6,1-1.1.7-1.9,1.6-2.5,2.8-.6,1.2-.9,2.6-.9,4.1l-.2,12.6c0,.5-.2,1-.6,1.3s-.8.5-1.3.5h-1.5c-.5,0-1-.2-1.4-.5-.4-.3-.5-.8-.5-1.4l.2-13.3c0-1.4-.2-2.7-.7-3.8-.5-1-1.1-1.9-2-2.5-.9-.6-1.9-.8-3.1-.8-2.2,0-3.9.7-5.2,2-1.3,1.4-2,3.3-2,5.8l-.2,12.6c0,.5-.2,1-.6,1.3-.4.3-.8.5-1.3.5h-1.5c-.5,0-1-.2-1.3-.5-.4-.3-.5-.8-.5-1.3v-23.1c0-.5.2-1,.5-1.3h0Z"/>
    <path d="M276.2,41.5c2-1.1,4.3-1.7,6.8-1.7s3.9.4,5.6,1.2c1.7.8,3,1.9,3.8,3.4v-2.4c0-.5.2-1,.5-1.3.4-.3.8-.5,1.3-.5h1.5c.5,0,1,.2,1.3.5.4.3.5.8.5,1.3v23.4c0,.5-.2,1-.5,1.3-.4.4-.8.5-1.3.5h-1.1c-.4,0-.8-.1-1.1-.4s-.5-.6-.6-1l-.6-2.7c-.9,1.5-2.1,2.6-3.8,3.4-1.7.8-3.6,1.3-5.6,1.3s-4.8-.6-6.9-1.8c-2.1-1.2-3.7-2.8-4.9-5-1.2-2.2-1.8-4.6-1.8-7.2s.6-5.1,1.9-7.3c1.2-2.2,2.9-3.8,5-5h0ZM279.2,61.5c1.4.8,2.9,1.2,4.5,1.2s3.1-.4,4.4-1.1c1.3-.7,2.3-1.8,3.1-3.1.7-1.3,1.1-2.9,1.1-4.7s-.4-3.3-1.3-4.7c-.9-1.4-2-2.5-3.4-3.1-.7-.3-1.4-.6-1.9-.7-.6-.2-1.3-.2-2-.2-1.6,0-3.1.4-4.5,1.1-1.4.8-2.5,1.8-3.3,3.1-.8,1.3-1.2,2.8-1.2,4.6s.4,3.2,1.2,4.5c.8,1.4,1.9,2.4,3.3,3.2h0Z"/>
    <path d="M306.4,44.6c-.5,0-1-.2-1.3-.5-.4-.4-.5-.8-.5-1.3v-.4c0-.5.2-1,.5-1.3.4-.3.8-.5,1.3-.5h2.7v-8.3c0-.5.2-1,.5-1.3.4-.4.8-.5,1.3-.5h1.5c.5,0,1,.2,1.3.5.4.4.5.8.5,1.3v8.3h4.1c.5,0,1,.2,1.3.5.4.3.5.8.5,1.3v.4c0,.5-.2,1-.5,1.3-.4.3-.8.5-1.3.5h-4.1v20.8c0,.5-.2,1-.5,1.3-.4.4-.8.5-1.3.5h-1.5c-.5,0-1-.2-1.3-.5-.4-.3-.5-.8-.5-1.3v-20.8s-2.7,0-2.7,0Z"/>
    <path d="M326.4,44.6c-.5,0-1-.2-1.3-.5-.4-.4-.5-.8-.5-1.3v-.4c0-.5.2-1,.5-1.3.4-.3.8-.5,1.3-.5h2.7v-8.3c0-.5.2-1,.5-1.3.4-.4.8-.5,1.3-.5h1.5c.5,0,1,.2,1.3.5.4.4.5.8.5,1.3v8.3h4.1c.5,0,1,.2,1.3.5.4.3.5.8.5,1.3v.4c0,.5-.2,1-.5,1.3-.4.3-.8.5-1.3.5h-4.1v20.8c0,.5-.2,1-.5,1.3-.4.4-.8.5-1.3.5h-1.5c-.5,0-1-.2-1.3-.5-.4-.3-.5-.8-.5-1.3v-20.8s-2.7,0-2.7,0Z"/>
    <path d="M352.2,41.6c2.1-1.2,4.5-1.7,7-1.7s4.9.6,6.9,1.7c2,1.1,3.6,2.8,4.7,4.9,1.1,2.1,1.7,4.5,1.7,7.3s0,.8-.2,1c-.1.2-.2.4-.2.5l-21.5.6c.2,1.5.7,2.8,1.5,3.8.8,1.1,1.8,2,3,2.6,1.3.6,2.7.9,4.1.9s2.3,0,3.1-.2c.8-.1,1.5-.4,2.1-.9.4-.2.7-.6,1.1-1.1.4-.5.9-.7,1.5-.7.6,0,1.3,0,2.2,0h.9s0,.1,0,.2,0,.3,0,.5c0,.9-.3,1.7-.9,2.3-.8.9-1.8,1.6-2.9,2.3-2.1,1.2-4.5,1.8-7.2,1.8s-4.9-.6-7.1-1.7c-2.1-1.1-3.8-2.8-5.1-4.8-1.2-2-1.9-4.4-1.9-7.2s.6-5.1,1.8-7.2c1.2-2.1,2.8-3.8,4.9-5h0ZM365.9,47.9c-.7-1-1.7-1.9-3-2.5-1.2-.6-2.5-.9-4-.9-2.2,0-4,.6-5.4,1.9-1.4,1.3-2.2,3-2.5,5.3h16.3c-.2-1.4-.7-2.7-1.5-3.8h0Z"/>
    <path d="M380.9,41c.4-.3.8-.5,1.3-.5h1.4c.5,0,.9.2,1.3.5s.5.7.6,1.2l.2,4.3c.6-2.2,1.5-3.7,2.8-4.7,1.2-1,2.8-1.5,4.7-1.5s2.4,0,3.2.2c.4,0,.7.2.9.5s.3.6.3,1,0,.3,0,.3l-.2,1c-.1.6-.3,1.1-.5,1.4-.2.3-.5.5-.7.4-.2,0-.4-.1-.8-.2-.5,0-1.3-.1-2.3-.1-1.6,0-3,.5-4.3,1.7-1.2,1.1-2.1,2.6-2.6,4.5-.2.8-.3,1.6-.4,2.4,0,.9,0,2.2,0,4v7.9c0,.5-.2,1-.5,1.3-.4.4-.8.5-1.3.5h-1.5c-.5,0-1-.2-1.3-.5-.4-.3-.5-.8-.5-1.3v-23.1c0-.5.2-1,.5-1.3h0Z"/>
  </g>
  <path class="st0" d="M53.1,36.2L73.5,2.7C58.9,27.2,28.2,47.3,3,49.6h28.3c7.5.3,10,6.5,5,14.2l-20.4,33.5c15.1-24.4,45.8-44.5,71.2-47.1h-28.3c-7.7,0-10.1-6.3-5.7-14h0Z"/>
</svg>