<?xml version="1.0" encoding="UTF-8"?>
<svg id="Layer_1" xmlns="http://www.w3.org/2000/svg" version="1.1" viewBox="0 0 100 100">
  <!-- Generator: Adobe Illustrator 29.1.0, SVG Export Plug-In . SVG Version: 2.1.0 Build 142)  -->
  <defs>
    <style>
      .st0 {
        fill: #b6ff17;
      }
    </style>
  </defs>
  <circle class="st0" cx="50" cy="50" r="48"/>
  <g>
    <path d="M71.5,48.3c-14.9,4.4-30.8,14.9-41.5,27.9h36.1c6.6,0,11.9-5.3,11.9-11.9v-7.8c0-4-2.8-7.3-6.6-8.1Z"/>
    <path d="M36.7,45.9h-14.8v30.3h7.3l11.6-19c3.9-6.1,2-11.1-4-11.3h0Z"/>
    <path d="M58.6,46.3h16.3c1.9-1.5,3.1-3.9,3.1-6.5v-7.8c0-6.6-5.3-11.9-11.9-11.9h-2.9l-9.2,15.1c-3.5,6.1-1.6,11.1,4.5,11.1h0Z"/>
    <path d="M61.6,20.1h-22.5c-9.5,0-17.1,7.7-17.1,17.1v7.3c13.9-3.5,28.8-12.7,39.7-24.4h0Z"/>
  </g>
</svg>