<?xml version="1.0" encoding="UTF-8"?>
<svg id="Layer_1" xmlns="http://www.w3.org/2000/svg" version="1.1" viewBox="0 0 401.64 100">
  <!-- Generator: Adobe Illustrator 29.1.0, SVG Export Plug-In . SVG Version: 2.1.0 Build 142)  -->
  <defs>
    <style>
      .st0 {
        fill: #b6ff17;
      }

      .st1 {
        fill: #e8efe8;
      }
    </style>
  </defs>
  <g>
    <path class="st1" d="M114.42,28.2c.35-.35.79-.52,1.33-.52h12.5c2.19,0,4.15.41,5.88,1.23,1.7.84,3.03,2.03,3.98,3.56.95,1.53,1.43,3.33,1.43,5.41s-.38,3.75-1.15,5.18c-.78,1.44-1.97,2.47-3.56,3.08,1.34.28,2.53.91,3.56,1.88,1.05.99,1.86,2.18,2.44,3.56.56,1.36.84,2.77.84,4.2,0,2.13-.46,4.04-1.37,5.74-.93,1.72-2.27,3.08-4.01,4.09-1.79,1.06-3.87,1.6-6.22,1.6h-14.57c-.52,0-.97-.18-1.33-.55-.36-.36-.55-.81-.55-1.33l.28-35.81c0-.54.17-.99.52-1.33ZM131.61,43.32c.82-.54,1.44-1.26,1.85-2.16.41-.88.62-1.91.62-3.08,0-1.08-.27-2.05-.81-2.91-.56-.82-1.34-1.46-2.33-1.91-1.03-.43-2.11-.64-3.25-.64h-8.41v11.49h9.53c1.06,0,2-.26,2.8-.78ZM133.12,61.37c.97-.6,1.72-1.4,2.24-2.41.52-.97.78-2.05.78-3.22s-.28-2.3-.84-3.36c-.56-1.05-1.34-1.91-2.33-2.58-.99-.65-2.09-.98-3.31-.98h-10.4v13.42h10.56c1.21,0,2.31-.29,3.28-.87Z"/>
    <path class="st1" d="M148.53,53.75c0-2.75.6-5.19,1.79-7.34,1.18-2.13,2.82-3.76,4.93-4.88,2.09-1.12,4.43-1.68,7.01-1.68s4.95.56,7.06,1.68c2.13,1.16,3.82,2.78,5.07,4.88.62,1.03,1.05,2.11,1.29,3.25.24,1.16.36,2.52.36,4.09,0,2.77-.6,5.22-1.79,7.37-1.21,2.17-2.88,3.82-4.99,4.96-2.09,1.14-4.43,1.71-7.01,1.71s-4.92-.58-7.03-1.74c-2.13-1.14-3.81-2.78-5.04-4.93-.58-.99-1-2.08-1.26-3.28-.26-1.21-.39-2.58-.39-4.09ZM157.78,61.87c1.38.77,2.88,1.15,4.48,1.15s3.12-.38,4.48-1.15c1.35-.77,2.41-1.83,3.19-3.19.77-1.38,1.15-2.93,1.15-4.65s-.38-3.2-1.15-4.57c-.75-1.33-1.81-2.37-3.19-3.14-1.35-.73-2.84-1.09-4.48-1.09s-3.14.36-4.48,1.09c-1.36.75-2.43,1.78-3.19,3.11-.78,1.35-1.18,2.88-1.18,4.6s.39,3.27,1.18,4.65c.75,1.36,1.81,2.43,3.19,3.19Z"/>
    <path class="st1" d="M189.09,66.69c-.35.36-.79.53-1.33.53h-1.51c-.52,0-.96-.18-1.32-.53-.35-.35-.53-.79-.53-1.32V27.85c0-.58.19-1.05.57-1.42.38-.36.86-.53,1.44-.49l1.49.08c.49.04.89.22,1.22.56.33.34.49.76.49,1.26v37.52c0,.52-.17.96-.52,1.32Z"/>
    <path class="st1" d="M198.49,44.56c-.52,0-.96-.18-1.32-.53-.36-.36-.53-.79-.53-1.32v-.42c0-.54.18-.99.53-1.33.35-.35.79-.52,1.32-.52h2.69v-8.27c0-.54.18-.99.53-1.33.35-.35.79-.52,1.32-.52h1.54c.54,0,.99.17,1.33.52.35.35.52.79.52,1.33v8.27h4.09c.54,0,.99.17,1.33.52.35.35.52.79.52,1.33v.42c0,.52-.17.96-.52,1.32-.35.35-.79.53-1.33.53h-4.09v20.82c0,.52-.17.96-.52,1.32-.35.36-.79.53-1.33.53h-1.54c-.52,0-.96-.18-1.32-.53-.36-.35-.53-.79-.53-1.32v-20.82h-2.69Z"/>
    <path class="st1" d="M219.96,40.95c.35-.35.79-.52,1.32-.52h1.4c.49,0,.9.15,1.25.46.35.31.53.71.55,1.22l.17,2.33c.6-1.25,1.61-2.28,3.03-3.08,1.42-.82,2.88-1.29,4.37-1.4.07-.02.34-.03.78-.03.9,0,1.62.07,2.16.2,3.38.5,5.72,2.25,7.01,5.24,1.91-3.68,5-5.52,9.28-5.52,2.24,0,4.14.46,5.69,1.37,1.53.92,2.71,2.28,3.53,4.09.78,1.72,1.16,3.86,1.12,6.42l-.25,13.67c-.02.52-.2.96-.55,1.3s-.78.52-1.3.52h-1.48c-.54,0-.99-.18-1.36-.53-.36-.35-.54-.81-.52-1.37l.25-13.25c.02-1.42-.22-2.68-.7-3.78-.47-1.03-1.18-1.85-2.13-2.47-.93-.58-2.05-.87-3.33-.87h-.08c-1.4,0-2.62.32-3.64.95-1.06.65-1.89,1.58-2.47,2.77-.58,1.2-.89,2.56-.92,4.09l-.25,12.64c-.02.52-.2.96-.55,1.3s-.78.52-1.3.52h-1.48c-.54,0-.99-.18-1.36-.53-.36-.35-.54-.81-.52-1.37l.25-13.31c.04-1.44-.19-2.69-.67-3.75-.47-1.05-1.14-1.87-2.02-2.47-.9-.56-1.93-.84-3.11-.84-2.17,0-3.89.67-5.16,2.02-1.29,1.36-1.96,3.3-2.02,5.8l-.25,12.64c-.02.52-.2.96-.55,1.3-.35.35-.78.52-1.3.52h-1.54c-.52,0-.96-.18-1.32-.53-.35-.35-.53-.79-.53-1.32v-23.09c0-.54.18-.99.53-1.33Z"/>
    <path class="st1" d="M276.17,41.53c2.05-1.12,4.32-1.68,6.78-1.68,2,0,3.87.41,5.6,1.23,1.7.8,2.96,1.92,3.78,3.36v-2.44c0-.54.18-.99.53-1.33.35-.35.79-.52,1.32-.52h1.49c.54,0,.99.17,1.33.52.35.35.52.79.52,1.33v23.37c0,.52-.17.96-.52,1.32-.35.36-.79.53-1.33.53h-1.07c-.43,0-.8-.13-1.12-.38-.32-.25-.51-.59-.59-1.02l-.56-2.72c-.86,1.46-2.13,2.6-3.81,3.42-1.7.84-3.56,1.26-5.58,1.26-2.52,0-4.81-.6-6.86-1.79-2.09-1.18-3.74-2.83-4.93-4.96-1.21-2.17-1.82-4.58-1.82-7.23s.62-5.13,1.85-7.31c1.2-2.15,2.86-3.8,4.99-4.96ZM279.19,61.51c1.38.78,2.88,1.18,4.48,1.18s3.12-.37,4.43-1.12c1.29-.71,2.32-1.75,3.08-3.11.73-1.35,1.09-2.91,1.09-4.71s-.42-3.31-1.26-4.71c-.86-1.4-1.99-2.45-3.39-3.14-.71-.35-1.35-.6-1.93-.73-.65-.15-1.33-.22-2.02-.22-1.64,0-3.15.37-4.51,1.12-1.36.75-2.46,1.78-3.28,3.11-.8,1.31-1.2,2.83-1.2,4.57s.4,3.18,1.2,4.54c.8,1.36,1.91,2.44,3.31,3.22Z"/>
    <path class="st1" d="M306.4,44.56c-.52,0-.96-.18-1.32-.53-.35-.36-.53-.79-.53-1.32v-.42c0-.54.18-.99.53-1.33.35-.35.79-.52,1.32-.52h2.69v-8.27c0-.54.18-.99.53-1.33.35-.35.79-.52,1.32-.52h1.54c.54,0,.99.17,1.33.52.35.35.52.79.52,1.33v8.27h4.09c.54,0,.99.17,1.33.52.35.35.52.79.52,1.33v.42c0,.52-.17.96-.52,1.32-.35.35-.79.53-1.33.53h-4.09v20.82c0,.52-.17.96-.52,1.32-.35.36-.79.53-1.33.53h-1.54c-.52,0-.96-.18-1.32-.53-.35-.35-.53-.79-.53-1.32v-20.82h-2.69Z"/>
    <path class="st1" d="M326.35,44.56c-.52,0-.96-.18-1.32-.53-.35-.36-.53-.79-.53-1.32v-.42c0-.54.18-.99.53-1.33.35-.35.79-.52,1.32-.52h2.69v-8.27c0-.54.18-.99.53-1.33.35-.35.79-.52,1.32-.52h1.54c.54,0,.99.17,1.33.52.35.35.52.79.52,1.33v8.27h4.09c.54,0,.99.17,1.33.52.35.35.52.79.52,1.33v.42c0,.52-.17.96-.52,1.32-.35.35-.79.53-1.33.53h-4.09v20.82c0,.52-.17.96-.52,1.32-.35.36-.79.53-1.33.53h-1.54c-.52,0-.96-.18-1.32-.53-.35-.35-.53-.79-.53-1.32v-20.82h-2.69Z"/>
    <path class="st1" d="M352.21,41.59c2.11-1.16,4.45-1.74,7.01-1.74s4.87.57,6.87,1.71c1.98,1.14,3.56,2.77,4.74,4.9,1.14,2.09,1.71,4.52,1.71,7.29,0,.43-.06.76-.17.98-.11.24-.17.41-.17.5l-21.46.56c.21,1.48.71,2.76,1.51,3.84.8,1.14,1.81,2,3.03,2.58,1.29.6,2.66.9,4.12.9,1.25,0,2.28-.08,3.08-.25.78-.13,1.48-.42,2.1-.87.37-.24.74-.6,1.09-1.07.39-.5.91-.73,1.54-.67.56.06,1.3.08,2.21.08h.92s.04.12.06.25c.02.13.03.28.03.45,0,.9-.29,1.67-.87,2.33-.8.88-1.76,1.64-2.86,2.3-2.09,1.23-4.49,1.85-7.2,1.85-2.56,0-4.91-.58-7.06-1.74-2.13-1.14-3.82-2.76-5.07-4.85-1.25-2.04-1.88-4.43-1.88-7.17s.6-5.09,1.79-7.2c1.18-2.09,2.82-3.75,4.93-4.96ZM365.89,47.92c-.73-1.05-1.72-1.88-2.97-2.49-1.16-.58-2.48-.87-3.98-.87-2.22,0-4.02.63-5.38,1.88-1.4,1.29-2.25,3.05-2.55,5.3h16.34c-.19-1.42-.67-2.69-1.46-3.81Z"/>
    <path class="st1" d="M380.85,40.95c.35-.35.79-.52,1.32-.52h1.35c.5,0,.92.16,1.26.49.34.33.52.74.56,1.25l.2,4.29c.62-2.15,1.54-3.73,2.77-4.74,1.23-1.01,2.79-1.51,4.68-1.51,1.31,0,2.39.07,3.25.22.37.06.66.23.87.53.21.3.31.64.31,1.04,0,.15,0,.26-.03.34l-.17.95c-.11.62-.28,1.1-.5,1.44-.22.35-.46.48-.7.41-.17-.06-.44-.12-.81-.2-.52-.07-1.3-.11-2.33-.11-1.63,0-3.05.55-4.26,1.65-1.23,1.12-2.1,2.63-2.61,4.54-.21.8-.34,1.61-.39,2.41-.06.86-.08,2.2-.08,4.04v7.9c0,.52-.17.96-.52,1.32-.35.36-.79.53-1.33.53h-1.51c-.52,0-.96-.18-1.32-.53-.36-.35-.53-.79-.53-1.32v-23.09c0-.54.18-.99.53-1.33Z"/>
  </g>
  <path class="st0" d="M53.1,36.24L73.5,2.72C58.88,27.16,28.16,47.27,3,49.61h28.28c7.53.27,9.97,6.51,5.03,14.2l-20.41,33.52c15.13-24.43,45.84-44.55,71.15-47.14h-28.28c-7.68-.02-10.12-6.26-5.69-13.95Z"/>
</svg>